<?xml version="1.0" encoding="UTF-8"?>
<!--
  SCENE 01 · HERO — "Workshop at dusk"
  Animated placeholder: window glow pulse, stars twinkle, parallax layers,
  floating code symbols drift, particles rise.
-->
<svg xmlns="http://www.w3.org/2000/svg" viewBox="0 0 1536 1024" preserveAspectRatio="xMidYMid slice">
  <defs>
    <style>
      .glow-window { animation: pulse-warm 4.2s ease-in-out infinite; transform-origin: center; transform-box: fill-box; }
      .glow-monitor { animation: pulse-cool 3.6s ease-in-out infinite; transform-origin: center; transform-box: fill-box; }
      .star { animation: twinkle 2.6s ease-in-out infinite; transform-origin: center; transform-box: fill-box; }
      .star-b { animation-delay: -1.1s; }
      .star-c { animation-delay: -2.0s; }
      .drift-fast   { animation: drift 6s ease-in-out infinite alternate; transform-origin: center; transform-box: fill-box; }
      .drift-medium { animation: drift 9s ease-in-out infinite alternate; transform-origin: center; transform-box: fill-box; }
      .drift-slow   { animation: drift 14s ease-in-out infinite alternate; transform-origin: center; transform-box: fill-box; }
      .particle   { animation: rise 7s linear infinite; transform-origin: center; transform-box: fill-box; }
      .particle-b { animation-delay: -2.3s; }
      .particle-c { animation-delay: -4.1s; }
      .particle-d { animation-delay: -5.7s; }
      .window-window { animation: flicker 5.5s steps(8,end) infinite; }
      .building-bg  { animation: parallax-bg 11s ease-in-out infinite alternate; }
      @keyframes pulse-warm {
        0%,100% { opacity: 0.85; transform: scale(1); }
        50%     { opacity: 1.00; transform: scale(1.06); }
      }
      @keyframes pulse-cool {
        0%,100% { opacity: 0.85; transform: scale(1); }
        50%     { opacity: 1.00; transform: scale(1.08); }
      }
      @keyframes twinkle {
        0%,100% { opacity: 0.40; transform: scale(0.85); }
        50%     { opacity: 1.00; transform: scale(1.15); }
      }
      @keyframes drift {
        0%   { transform: translate(0,0); }
        100% { transform: translate(8px,-6px); }
      }
      @keyframes rise {
        0%   { transform: translate(0,0);     opacity: 0; }
        15%  { opacity: 0.85; }
        85%  { opacity: 0.55; }
        100% { transform: translate(0,-60px); opacity: 0; }
      }
      @keyframes flicker {
        0%,100% { fill: #ffd9a0; }
        45%     { fill: #ffe8b8; }
        55%     { fill: #ffc880; }
      }
      @keyframes parallax-bg {
        0%   { transform: translate(0,0); }
        100% { transform: translate(-4px,2px); }
      }
    </style>
    <linearGradient id="s1-sky" x1="0" y1="0" x2="0" y2="1">
      <stop offset="0%"  stop-color="#1a1530"/>
      <stop offset="55%" stop-color="#2d2350"/>
      <stop offset="100%" stop-color="#4a3678"/>
    </linearGradient>
    <linearGradient id="s1-ground" x1="0" y1="0" x2="0" y2="1">
      <stop offset="0%"  stop-color="#2d2350"/>
      <stop offset="100%" stop-color="#0e0a1c"/>
    </linearGradient>
    <radialGradient id="s1-window" cx="50%" cy="50%" r="55%">
      <stop offset="0%"  stop-color="#ffd9a0" stop-opacity="1"/>
      <stop offset="40%" stop-color="#ffb347" stop-opacity="0.7"/>
      <stop offset="100%" stop-color="#ffb347" stop-opacity="0"/>
    </radialGradient>
    <radialGradient id="s1-monitor" cx="50%" cy="50%" r="50%">
      <stop offset="0%"  stop-color="#c4a4ff" stop-opacity="0.9"/>
      <stop offset="100%" stop-color="#c4a4ff" stop-opacity="0"/>
    </radialGradient>
    <radialGradient id="s1-haze" cx="50%" cy="60%" r="70%">
      <stop offset="0%"  stop-color="#ffb347" stop-opacity="0.18"/>
      <stop offset="100%" stop-color="#ffb347" stop-opacity="0"/>
    </radialGradient>
    <filter id="s1-soft" x="-50%" y="-50%" width="200%" height="200%">
      <feGaussianBlur stdDeviation="14"/>
    </filter>
    <filter id="s1-strong" x="-50%" y="-50%" width="200%" height="200%">
      <feGaussianBlur stdDeviation="40"/>
    </filter>
    <filter id="s1-grain" x="0" y="0" width="100%" height="100%">
      <feTurbulence type="fractalNoise" baseFrequency="0.85" numOctaves="2" seed="3"/>
      <feColorMatrix values="0 0 0 0 0  0 0 0 0 0  0 0 0 0 0  0 0 0 0.05 0"/>
    </filter>
  </defs>

  <rect width="1536" height="1024" fill="url(#s1-sky)"/>

  <!-- Stars (twinkle, staggered) -->
  <g fill="#fff">
    <circle class="star"   cx="120"  cy="80"  r="1.5"/>
    <circle class="star star-b" cx="280"  cy="160" r="1"/>
    <circle class="star star-c" cx="420"  cy="60"  r="2"/>
    <circle class="star star-b" cx="640"  cy="120" r="1"/>
    <circle class="star"   cx="820"  cy="40"  r="1.5"/>
    <circle class="star star-c" cx="1080" cy="100" r="1"/>
    <circle class="star"   cx="1240" cy="200" r="2"/>
    <circle class="star star-b" cx="1380" cy="80"  r="1"/>
    <circle class="star star-c" cx="180"  cy="280" r="1"/>
    <circle class="star"   cx="1480" cy="320" r="1.5"/>
    <circle class="star star-b" cx="940"  cy="220" r="1"/>
    <circle class="star star-c" cx="60"   cy="180" r="1"/>
  </g>

  <!-- Far background building silhouettes (slow parallax) -->
  <g class="building-bg" fill="#1a1530" opacity="0.85">
    <rect x="60"   y="380" width="160" height="320"/>
    <rect x="240"  y="320" width="120" height="380"/>
    <rect x="380"  y="440" width="200" height="260"/>
    <rect x="1080" y="360" width="180" height="340"/>
    <rect x="1280" y="420" width="200" height="280"/>
  </g>
  <g fill="#ffb347" opacity="0.65">
    <rect x="80"   y="430" width="14" height="20"/>
    <rect x="120"  y="450" width="14" height="20"/>
    <rect x="180"  y="430" width="14" height="20"/>
    <rect x="1100" y="400" width="14" height="20"/>
    <rect x="1140" y="430" width="14" height="20"/>
    <rect x="1180" y="410" width="14" height="20"/>
    <rect x="1300" y="450" width="14" height="20"/>
    <rect x="1340" y="470" width="14" height="20"/>
    <rect x="1380" y="460" width="14" height="20"/>
    <rect x="1420" y="490" width="14" height="20"/>
  </g>

  <!-- Workshop building -->
  <g transform="translate(540,420)">
    <ellipse cx="250" cy="340" rx="280" ry="22" fill="#000" opacity="0.5" filter="url(#s1-strong)"/>
    <rect x="0" y="0" width="500" height="320" fill="#241d2b"/>
    <polygon points="500,0 580,-50 580,270 500,320" fill="#3a2f4a"/>
    <polygon points="0,0 250,-110 580,-50 500,0" fill="#1a1530"/>
    <polygon points="250,-110 580,-50 580,-30 250,-90" fill="#2d2350"/>
    <!-- warm window with pulsing glow -->
    <rect class="window-window" x="180" y="80" width="140" height="160"/>
    <g class="glow-window"><circle cx="250" cy="160" r="120" fill="url(#s1-window)" filter="url(#s1-soft)"/></g>
    <line x1="250" y1="80" x2="250" y2="240" stroke="#241d2b" stroke-width="4"/>
    <line x1="180" y1="160" x2="320" y2="160" stroke="#241d2b" stroke-width="4"/>
    <rect x="50" y="100" width="80" height="60" fill="#ffb347" opacity="0.5"/>
    <rect x="370" y="100" width="80" height="60" fill="#ffb347" opacity="0.5"/>
    <rect x="220" y="180" width="60" height="140" fill="#1a1530"/>
    <circle cx="270" cy="250" r="3" fill="#ffb347"/>
  </g>

  <!-- Atmospheric haze -->
  <rect width="1536" height="1024" fill="url(#s1-haze)"/>

  <!-- Floating code symbols (parallax via different drift speeds) -->
  <g font-family="ui-monospace, Menlo, monospace" font-weight="700" fill="#c4a4ff">
    <text class="drift-fast"   x="180"  y="180" font-size="22" opacity="0.55">&lt;/&gt;</text>
    <text class="drift-medium" x="1380" y="200" font-size="28" opacity="0.6">{ }</text>
    <text class="drift-slow"   x="140"  y="780" font-size="40" opacity="0.85">&lt;?php</text>
    <text class="drift-fast"   x="1280" y="760" font-size="34" opacity="0.75">=&gt;</text>
    <text class="drift-medium" x="1100" y="160" font-size="20" opacity="0.5">[ ]</text>
    <text class="drift-slow"   x="380"  y="120" font-size="24" opacity="0.6">+50 XP</text>
    <text class="drift-medium" x="80"   y="540" font-size="48" opacity="0.8" font-weight="900">git push</text>
    <text class="drift-fast"   x="60"   y="600" font-size="20" opacity="0.5">↑</text>
  </g>

  <!-- Rising particles (warm sparkles) -->
  <g fill="#ffb347">
    <circle class="particle"         cx="220"  cy="900" r="2"/>
    <circle class="particle particle-b" cx="340" cy="880" r="1.5"/>
    <circle class="particle particle-c" cx="440" cy="940" r="2"/>
    <circle class="particle particle-d" cx="980" cy="900" r="1.5"/>
    <circle class="particle particle-b" cx="1080" cy="920" r="2"/>
    <circle class="particle particle-c" cx="1180" cy="900" r="1"/>
    <circle class="particle particle-d" cx="1280" cy="940" r="2"/>
    <circle class="particle particle-b" cx="1380" cy="900" r="1.5"/>
    <circle class="particle particle-c" cx="120" cy="940" r="1.5"/>
  </g>

  <!-- Ground reflection -->
  <rect x="0" y="800" width="1536" height="224" fill="url(#s1-ground)"/>
  <ellipse cx="768" cy="830" rx="380" ry="14" fill="#ffb347" opacity="0.18" filter="url(#s1-strong)"/>

  <!-- Vignette -->
  <radialGradient id="s1-vig" cx="50%" cy="50%" r="70%">
    <stop offset="55%" stop-color="#000" stop-opacity="0"/>
    <stop offset="100%" stop-color="#000" stop-opacity="0.55"/>
  </radialGradient>
  <rect width="1536" height="1024" fill="url(#s1-vig)"/>
  <rect width="1536" height="1024" filter="url(#s1-grain)" opacity="0.45"/>
</svg>
