<?xml version="1.0" encoding="UTF-8"?>
<!-- SCENE 02 · ABOUT — "The Armory" (v2: dramatic motion) -->
<svg xmlns="http://www.w3.org/2000/svg" viewBox="0 0 1536 1024" preserveAspectRatio="xMidYMid slice">
  <defs>
    <style>
      .spot       { animation: spot-sway 6s ease-in-out infinite alternate; transform-origin: center; transform-box: fill-box; }
      .spot-2     { animation-delay: -1.5s; }
      .spot-3     { animation-delay: -3s; }
      .spot-4     { animation-delay: -4.5s; }
      .crate-glow { animation: crate-pulse 3.5s ease-in-out infinite; transform-origin: center; transform-box: fill-box; }
      .crate-glow-2 { animation-delay: -1.0s; }
      .crate-glow-3 { animation-delay: -2.0s; }
      .drift-shelf { animation: shelf-sway 7s ease-in-out infinite alternate; }
      .particle   { animation: rise 4.5s linear infinite; transform-origin: center; transform-box: fill-box; }
      .particle-b { animation-delay: -1.0s; }
      .particle-c { animation-delay: -2.0s; }
      .particle-d { animation-delay: -3.0s; }
      .halo-orb   { animation: orb-pulse 4.0s ease-in-out infinite; transform-origin: center; transform-box: fill-box; }
      .halo-orb-b { animation-delay: -1.5s; }
      .halo-orb-c { animation-delay: -2.8s; }
      @keyframes spot-sway {
        0%   { transform: translateX(-18px); opacity: 0.35; }
        100% { transform: translateX(18px);  opacity: 0.55; }
      }
      @keyframes crate-pulse {
        0%,100% { opacity: 0.55; transform: scale(1); }
        50%     { opacity: 1.00; transform: scale(1.10); }
      }
      @keyframes shelf-sway {
        0%   { transform: translate(0,0); }
        100% { transform: translate(0,-4px); }
      }
      @keyframes rise {
        0%   { transform: translate(0,0);     opacity: 0; }
        12%  { opacity: 1; }
        88%  { opacity: 0.85; }
        100% { transform: translate(0,-80px); opacity: 0; }
      }
      @keyframes orb-pulse {
        0%,100% { opacity: 0.40; transform: scale(0.85); }
        50%     { opacity: 0.90; transform: scale(1.18); }
      }
    </style>
    <linearGradient id="s2-bg" x1="0" y1="0" x2="0" y2="1">
      <stop offset="0%"  stop-color="#3a1f0a"/>
      <stop offset="50%" stop-color="#7d4515"/>
      <stop offset="100%" stop-color="#2a1305"/>
    </linearGradient>
    <radialGradient id="s2-spot" cx="50%" cy="20%" r="60%">
      <stop offset="0%"  stop-color="#ffe5b8" stop-opacity="0.55"/>
      <stop offset="100%" stop-color="#ffe5b8" stop-opacity="0"/>
    </radialGradient>
    <linearGradient id="s2-floor" x1="0" y1="0" x2="0" y2="1">
      <stop offset="0%"  stop-color="#3a1f0a"/>
      <stop offset="100%" stop-color="#0a0500"/>
    </linearGradient>
    <radialGradient id="s2-crate-glow" cx="50%" cy="40%" r="60%">
      <stop offset="0%" stop-color="#ffd9a0" stop-opacity="0.6"/>
      <stop offset="100%" stop-color="#ffd9a0" stop-opacity="0"/>
    </radialGradient>
    <radialGradient id="s2-orb-warm" cx="50%" cy="50%" r="50%">
      <stop offset="0%"  stop-color="#ffd9a0" stop-opacity="0.95"/>
      <stop offset="60%" stop-color="#ffd9a0" stop-opacity="0.30"/>
      <stop offset="100%" stop-color="#ffd9a0" stop-opacity="0"/>
    </radialGradient>
    <filter id="s2-soft"   x="-50%" y="-50%" width="200%" height="200%"><feGaussianBlur stdDeviation="12"/></filter>
    <filter id="s2-strong" x="-50%" y="-50%" width="200%" height="200%"><feGaussianBlur stdDeviation="30"/></filter>
    <filter id="s2-grain" x="0" y="0" width="100%" height="100%">
      <feTurbulence type="fractalNoise" baseFrequency="0.9" numOctaves="2" seed="7"/>
      <feColorMatrix values="0 0 0 0 0  0 0 0 0 0  0 0 0 0 0  0 0 0 0.06 0"/>
    </filter>
  </defs>

  <rect width="1536" height="1024" fill="url(#s2-bg)"/>
  <rect width="1536" height="1024" fill="url(#s2-spot)"/>

  <g stroke="#1a0c00" stroke-width="2" opacity="0.5">
    <line x1="0"    y1="0" x2="0"    y2="1024"/>
    <line x1="120"  y1="0" x2="120"  y2="1024"/>
    <line x1="240"  y1="0" x2="240"  y2="1024"/>
    <line x1="360"  y1="0" x2="360"  y2="1024"/>
    <line x1="480"  y1="0" x2="480"  y2="1024"/>
    <line x1="600"  y1="0" x2="600"  y2="1024"/>
    <line x1="720"  y1="0" x2="720"  y2="1024"/>
    <line x1="840"  y1="0" x2="840"  y2="1024"/>
    <line x1="960"  y1="0" x2="960"  y2="1024"/>
    <line x1="1080" y1="0" x2="1080" y2="1024"/>
    <line x1="1200" y1="0" x2="1200" y2="1024"/>
    <line x1="1320" y1="0" x2="1320" y2="1024"/>
    <line x1="1440" y1="0" x2="1440" y2="1024"/>
  </g>

  <g opacity="0.30" filter="url(#s2-strong)">
    <ellipse class="spot"        cx="240"  cy="100" rx="160" ry="80" fill="#ffe5b8"/>
    <ellipse class="spot spot-2" cx="540"  cy="100" rx="160" ry="80" fill="#ffe5b8"/>
    <ellipse class="spot spot-3" cx="840"  cy="100" rx="160" ry="80" fill="#ffe5b8"/>
    <ellipse class="spot spot-4" cx="1140" cy="100" rx="160" ry="80" fill="#ffe5b8"/>
  </g>

  <g>
    <g transform="translate(160,320)">
      <rect x="-10" y="180" width="290" height="14" fill="#1a0c00"/>
      <g transform="translate(0,0)">
        <rect width="220" height="180" rx="6" fill="#7a1d1d"/>
        <ellipse class="crate-glow" cx="110" cy="180" rx="140" ry="18" fill="#ff4d4d" filter="url(#s2-strong)"/>
        <text x="110" y="100" text-anchor="middle" font-family="ui-rounded, system-ui, sans-serif" font-weight="700" font-size="42" fill="#fff">Laravel</text>
        <text x="110" y="140" text-anchor="middle" font-family="ui-monospace, monospace" font-size="20" fill="#ffd9a0" opacity="0.8">v11.x</text>
        <rect x="0" y="0" width="220" height="14" fill="#ff4d4d"/>
      </g>
    </g>

    <g transform="translate(490,320)">
      <rect x="-10" y="180" width="290" height="14" fill="#1a0c00"/>
      <g transform="translate(0,0)">
        <rect width="220" height="180" rx="6" fill="#7a3010"/>
        <ellipse class="crate-glow crate-glow-2" cx="110" cy="180" rx="140" ry="18" fill="#ee6a36" filter="url(#s2-strong)"/>
        <text x="110" y="92" text-anchor="middle" font-family="ui-rounded, system-ui, sans-serif" font-weight="700" font-size="34" fill="#fff">CodeIgniter</text>
        <text x="110" y="132" text-anchor="middle" font-family="ui-monospace, monospace" font-size="20" fill="#ffd9a0" opacity="0.8">v4.7</text>
        <rect x="0" y="0" width="220" height="14" fill="#ee6a36"/>
      </g>
    </g>

    <g transform="translate(820,320)">
      <rect x="-10" y="180" width="290" height="14" fill="#1a0c00"/>
      <g transform="translate(0,0)">
        <rect width="220" height="180" rx="6" fill="#3d2a6d"/>
        <ellipse class="crate-glow crate-glow-3" cx="110" cy="180" rx="140" ry="18" fill="#7b6cd9" filter="url(#s2-strong)"/>
        <text x="110" y="92" text-anchor="middle" font-family="ui-rounded, system-ui, sans-serif" font-weight="700" font-size="34" fill="#fff">PHP</text>
        <text x="110" y="132" text-anchor="middle" font-family="ui-monospace, monospace" font-size="20" fill="#ffd9a0" opacity="0.8">v8.3</text>
        <rect x="0" y="0" width="220" height="14" fill="#7b6cd9"/>
      </g>
    </g>

    <g transform="translate(1150,320)">
      <rect x="-10" y="180" width="290" height="14" fill="#1a0c00"/>
      <g transform="translate(0,0)">
        <rect width="220" height="180" rx="6" fill="#003a4a"/>
        <ellipse class="crate-glow" cx="110" cy="180" rx="140" ry="18" fill="#00758f" filter="url(#s2-strong)"/>
        <text x="110" y="92" text-anchor="middle" font-family="ui-rounded, system-ui, sans-serif" font-weight="700" font-size="34" fill="#fff">MySQL</text>
        <text x="110" y="132" text-anchor="middle" font-family="ui-monospace, monospace" font-size="20" fill="#ffd9a0" opacity="0.8">v8.0</text>
        <rect x="0" y="0" width="220" height="14" fill="#00758f"/>
      </g>
    </g>

    <g transform="translate(320,580)">
      <rect x="-10" y="180" width="290" height="14" fill="#1a0c00"/>
      <g transform="translate(0,0)">
        <rect width="220" height="180" rx="6" fill="#4a1500"/>
        <ellipse class="crate-glow crate-glow-2" cx="110" cy="180" rx="140" ry="18" fill="#f1502f" filter="url(#s2-strong)"/>
        <text x="110" y="92" text-anchor="middle" font-family="ui-rounded, system-ui, sans-serif" font-weight="700" font-size="34" fill="#fff">Git</text>
        <text x="110" y="132" text-anchor="middle" font-family="ui-monospace, monospace" font-size="20" fill="#ffd9a0" opacity="0.8">v2.51</text>
        <rect x="0" y="0" width="220" height="14" fill="#f1502f"/>
      </g>
    </g>

    <g transform="translate(650,580)">
      <rect x="-10" y="180" width="290" height="14" fill="#1a0c00"/>
      <g transform="translate(0,0)">
        <rect width="220" height="180" rx="6" fill="#003355"/>
        <ellipse class="crate-glow crate-glow-3" cx="110" cy="180" rx="140" ry="18" fill="#3c99d4" filter="url(#s2-strong)"/>
        <text x="110" y="92" text-anchor="middle" font-family="ui-rounded, system-ui, sans-serif" font-weight="700" font-size="34" fill="#fff">VS Code</text>
        <text x="110" y="132" text-anchor="middle" font-family="ui-monospace, monospace" font-size="20" fill="#ffd9a0" opacity="0.8">.ts · .js · .php</text>
        <rect x="0" y="0" width="220" height="14" fill="#3c99d4"/>
      </g>
    </g>

    <g transform="translate(980,580)">
      <rect x="-10" y="180" width="290" height="14" fill="#1a0c00"/>
      <g transform="translate(0,0)">
        <rect width="220" height="180" rx="6" fill="#003319"/>
        <ellipse class="crate-glow" cx="110" cy="180" rx="140" ry="18" fill="#65b349" filter="url(#s2-strong)"/>
        <text x="110" y="92" text-anchor="middle" font-family="ui-rounded, system-ui, sans-serif" font-weight="700" font-size="34" fill="#fff">Composer</text>
        <text x="110" y="132" text-anchor="middle" font-family="ui-monospace, monospace" font-size="20" fill="#ffd9a0" opacity="0.8">v2.x</text>
        <rect x="0" y="0" width="220" height="14" fill="#65b349"/>
      </g>
    </g>
  </g>

  <!-- Halo orbs -->
  <g>
    <circle class="halo-orb"           cx="280"  cy="800" r="40" fill="url(#s2-orb-warm)" filter="url(#s2-soft)"/>
    <circle class="halo-orb halo-orb-b" cx="1100" cy="780" r="44" fill="url(#s2-orb-warm)" filter="url(#s2-soft)"/>
    <circle class="halo-orb halo-orb-c" cx="700"  cy="940" r="32" fill="url(#s2-orb-warm)" filter="url(#s2-soft)"/>
    <circle class="halo-orb"           cx="1380" cy="940" r="28" fill="url(#s2-orb-warm)" filter="url(#s2-soft)"/>
  </g>

  <!-- Rising particles -->
  <g fill="#ffd9a0">
    <circle class="particle"            cx="100"  cy="950" r="3"/>
    <circle class="particle particle-b" cx="320"  cy="900" r="2.5"/>
    <circle class="particle particle-c" cx="540"  cy="930" r="3"/>
    <circle class="particle particle-d" cx="800"  cy="900" r="2.5"/>
    <circle class="particle"            cx="1100" cy="940" r="2.5"/>
    <circle class="particle particle-b" cx="1320" cy="900" r="3"/>
    <circle class="particle particle-c" cx="180"  cy="940" r="2.5"/>
    <circle class="particle particle-d" cx="480"  cy="930" r="2"/>
    <circle class="particle"            cx="780"  cy="960" r="2.5"/>
    <circle class="particle particle-b" cx="1080" cy="900" r="2"/>
    <circle class="particle particle-c" cx="1380" cy="940" r="2.5"/>
    <circle class="particle particle-d" cx="80"   cy="900" r="3"/>
    <circle class="particle"            cx="380"  cy="940" r="2"/>
    <circle class="particle particle-b" cx="780"  cy="900" r="2.5"/>
    <circle class="particle particle-c" cx="1180" cy="920" r="3"/>
    <circle class="particle particle-d" cx="1450" cy="900" r="2"/>
  </g>

  <rect x="0" y="800" width="1536" height="224" fill="url(#s2-floor)"/>
  <ellipse cx="768" cy="820" rx="600" ry="10" fill="#ffb347" opacity="0.18" filter="url(#s2-strong)"/>

  <radialGradient id="s2-vig" cx="50%" cy="50%" r="70%">
    <stop offset="50%" stop-color="#000" stop-opacity="0"/>
    <stop offset="100%" stop-color="#000" stop-opacity="0.55"/>
  </radialGradient>
  <rect width="1536" height="1024" fill="url(#s2-vig)"/>
  <rect width="1536" height="1024" filter="url(#s2-grain)" opacity="0.5"/>
</svg>
